<svg id="Capa_1" enable-background="new 0 0 512.268 512.268" height="512" viewBox="0 0 512.268 512.268" width="512" xmlns="http://www.w3.org/2000/svg"><g><g><path d="m481.514 179.309-92.61-55.89-55.89-92.61c40.94-40.94 107.56-40.94 148.5 0s40.941 107.56 0 148.5z" fill="#575f64"/><path d="m481.514 179.309-92.61-55.89 92.61-92.61c40.941 40.94 40.941 107.56 0 148.5z" fill="#32393f"/><path d="m481.514 179.309c-40.94 40.94-107.56 40.93-148.5 0-40.94-40.94-40.94-107.56 0-148.5z" fill="#32393f"/><path d="m481.514 179.309c-40.94 40.94-107.56 40.93-148.5 0l74.25-74.25z" fill="#292929"/></g><g><path d="m109.525 424.009-83.65 83.66c-6.92 6.91-15.77 5.17-21.12-.1-5.36-5.24-7.21-14.01-.1-21.12l83.66-83.65c5.86-5.86 15.35-5.86 21.21 0s5.859 15.35 0 21.21z" fill="#575f64"/></g><path d="m109.525 424.009-83.65 83.66c-6.92 6.91-15.77 5.17-21.12-.1l104.77-104.77c5.859 5.86 5.859 15.35 0 21.21z" fill="#32393f"/><path d="m137.345 90.059h35.649l-19.146 38.292c-3.705 7.41-.701 16.42 6.708 20.125 7.419 3.71 16.425.691 20.125-6.708l30-60c5.042-10.09-2.483-21.708-13.417-21.708h-35.729l19.146-38.292c3.705-7.41.701-16.42-6.708-20.125s-16.42-.701-20.125 6.708l-30 60c-4.901 9.808 2.17 21.775 13.497 21.708z" fill="#ffdf8e"/><path d="m510.681 338.351c-3.705-7.409-12.715-10.413-20.125-6.708l-38.292 19.146v-35.729c0-11.145-11.819-18.364-21.708-13.417l-60 30c-7.41 3.705-10.413 12.715-6.708 20.125 3.706 7.411 12.717 10.412 20.125 6.708l38.292-19.146v35.729c0 10.989 11.64 18.458 21.708 13.417l60-30c7.409-3.705 10.413-12.716 6.708-20.125z" fill="#ffb64c"/><path d="m342.114 255.059-167.88 167.89c-23.4 23.39-61.46 23.39-84.86 0-23.44-23.45-23.45-61.41 0-84.86l167.89-167.88c5.86-5.86 15.36-5.86 21.21 0l31.82 31.82 31.82 31.82c5.861 5.85 5.861 15.35 0 21.21z" fill="#ff641a"/><path d="m342.114 255.059-167.88 167.89c-23.4 23.39-61.46 23.39-84.86 0l220.92-220.92 31.82 31.82c5.861 5.85 5.861 15.35 0 21.21z" fill="#dd3400"/><g><path d="m237.874 295.669-21.22 21.21c-5.85 5.86-15.35 5.86-21.21 0s-5.86-15.36 0-21.21l21.21-21.22c5.86-5.85 15.36-5.85 21.22 0 5.851 5.86 5.851 15.36 0 21.22z" fill="#575f64"/></g><path d="m237.874 295.669-21.22 21.21c-5.85 5.86-15.35 5.86-21.21 0l42.43-42.43c5.851 5.86 5.851 15.36 0 21.22z" fill="#32393f"/><g><path d="m417.874 221.729-127.28-127.28c-5.86-5.85-15.36-5.85-21.22 0l-42.42 42.43c-5.86 5.86-5.86 15.36 0 21.21l63.64 63.64 63.64 63.64c5.85 5.86 15.35 5.86 21.21 0l42.43-42.42c5.851-5.86 5.851-15.36 0-21.22z" fill="#ececf1"/></g><path d="m417.874 242.949-42.43 42.42c-5.86 5.86-15.36 5.86-21.21 0l-63.64-63.64 63.64-63.64 63.64 63.64c5.851 5.86 5.851 15.36 0 21.22z" fill="#d3d3d8"/></g></svg>