<svg id="Capa_1" enable-background="new 0 0 510.001 510.001" height="512" viewBox="0 0 510.001 510.001" width="512" xmlns="http://www.w3.org/2000/svg" xmlns:xlink="http://www.w3.org/1999/xlink"><linearGradient id="lg1"><stop offset="0" stop-color="#537983"/><stop offset=".593" stop-color="#554e56"/><stop offset="1" stop-color="#433f43"/></linearGradient><linearGradient id="SVGID_1_" gradientUnits="userSpaceOnUse" x1="151.738" x2="507.829" xlink:href="#lg1" y1="416.711" y2="416.711"/><linearGradient id="SVGID_2_" gradientUnits="userSpaceOnUse" x1="303.535" x2="349.052" xlink:href="#lg1" y1="436.732" y2="436.732"/><linearGradient id="SVGID_3_" gradientUnits="userSpaceOnUse" x1="307.16" x2="370.837" xlink:href="#lg1" y1="465.872" y2="465.872"/><linearGradient id="SVGID_4_" gradientTransform="matrix(.707 .707 -.707 .707 282.061 -239.004)" gradientUnits="userSpaceOnUse" x1="137.462" x2="498.232" xlink:href="#lg1" y1="486.361" y2="486.361"/><linearGradient id="SVGID_5_" gradientTransform="matrix(.707 .707 -.707 .707 265.013 -173.718)" gradientUnits="userSpaceOnUse" x1="175.836" x2="298.266" xlink:href="#lg1" y1="337.769" y2="337.769"/><linearGradient id="SVGID_6_" gradientTransform="matrix(.707 .707 -.707 .707 265.013 -173.718)" gradientUnits="userSpaceOnUse" x1="139.069" x2="365.785" xlink:href="#lg1" y1="451.809" y2="451.809"/><linearGradient id="lg2"><stop offset="0" stop-color="#fef056"/><stop offset=".5213" stop-color="#fbc56d"/><stop offset="1" stop-color="#c86d36"/></linearGradient><linearGradient id="SVGID_7_" gradientTransform="matrix(.707 .707 -.707 .707 282.061 -239.004)" gradientUnits="userSpaceOnUse" x1="361.585" x2="408.294" xlink:href="#lg2" y1="609.054" y2="609.054"/><linearGradient id="SVGID_8_" gradientTransform="matrix(.707 .707 -.707 .707 282.061 -239.004)" gradientUnits="userSpaceOnUse" x1="389.585" x2="436.256" xlink:href="#lg2" y1="567.554" y2="567.554"/><linearGradient id="SVGID_9_" gradientTransform="matrix(.707 .707 -.707 .707 -382.805 1248.492)" gradientUnits="userSpaceOnUse" x1="-315.215" x2="-191.838" xlink:href="#lg2" y1="-1240.184" y2="-1240.184"/><linearGradient id="SVGID_10_" gradientTransform="matrix(.707 .707 -.707 .707 -350.808 1261.746)" gradientUnits="userSpaceOnUse" x1="-377.202" x2="-227.766" xlink:href="#lg2" y1="-1226.927" y2="-1226.927"/><linearGradient id="SVGID_11_" gradientTransform="matrix(.707 .707 -.707 .707 -350.416 1262.692)" gradientUnits="userSpaceOnUse" x1="-343.274" x2="-252.789" xlink:href="#lg1" y1="-1365.099" y2="-1365.099"/><linearGradient id="SVGID_12_" gradientTransform="matrix(.707 .707 -.707 .707 -350.416 1262.692)" gradientUnits="userSpaceOnUse" x1="-331.282" x2="-252.789" xlink:href="#lg1" y1="-1395.889" y2="-1395.889"/><linearGradient id="SVGID_13_" gradientTransform="matrix(.707 .707 -.707 .707 -583.155 1234.838)" gradientUnits="userSpaceOnUse" x1="-124.176" x2="-69.759" xlink:href="#lg1" y1="-1602.702" y2="-1602.702"/><linearGradient id="SVGID_14_" gradientTransform="matrix(.707 .707 -.707 .707 -350.416 1262.692)" gradientUnits="userSpaceOnUse" x1="-319.243" x2="-252.789" xlink:href="#lg1" y1="-1426.679" y2="-1426.679"/><linearGradient id="lg3"><stop offset="0" stop-color="#f8f6f7"/><stop offset=".1788" stop-color="#f8f6f7"/><stop offset="1" stop-color="#e7e6f5"/></linearGradient><linearGradient id="SVGID_15_" gradientTransform="matrix(.397 .918 -.766 .331 -549.697 781.206)" gradientUnits="userSpaceOnUse" x1="-320.178" x2="-292.559" xlink:href="#lg3" y1="-1478.915" y2="-1478.915"/><linearGradient id="SVGID_16_" gradientTransform="matrix(.397 .918 -.766 .331 -549.697 781.206)" gradientUnits="userSpaceOnUse" x1="-320.178" x2="-292.559" xlink:href="#lg3" y1="-1439.766" y2="-1439.766"/><linearGradient id="SVGID_17_" gradientTransform="matrix(.397 .918 -.766 .331 -549.697 781.206)" gradientUnits="userSpaceOnUse" x1="-320.178" x2="-292.559" xlink:href="#lg3" y1="-1400.617" y2="-1400.617"/><linearGradient id="SVGID_18_" gradientTransform="matrix(.397 .918 -.766 .331 -549.697 781.206)" gradientUnits="userSpaceOnUse" x1="-320.178" x2="-292.559" xlink:href="#lg3" y1="-1361.617" y2="-1361.617"/><linearGradient id="SVGID_19_" gradientUnits="userSpaceOnUse" x1="445.68" x2="470.506" xlink:href="#lg2" y1="311.344" y2="311.344"/><linearGradient id="SVGID_20_" gradientUnits="userSpaceOnUse" x1="432.587" x2="488.162" xlink:href="#lg2" y1="341.616" y2="341.616"/><linearGradient id="SVGID_21_" gradientUnits="userSpaceOnUse" x1="402.16" x2="497.994" xlink:href="#lg2" y1="341.616" y2="341.616"/><linearGradient id="SVGID_22_" gradientTransform="matrix(.707 .707 -.707 .707 282.061 -239.004)" gradientUnits="userSpaceOnUse" x1="239.012" x2="384.403" xlink:href="#lg3" y1="567.664" y2="567.664"/><linearGradient id="SVGID_23_" gradientTransform="matrix(.707 .707 -.707 .707 265.013 -173.718)" gradientUnits="userSpaceOnUse" x1="248.342" x2="326.204" y1="509.445" y2="509.445"><stop offset="0" stop-color="#f8f6f7"/><stop offset="1" stop-color="#d1ceeb"/></linearGradient><linearGradient id="SVGID_24_" gradientTransform="matrix(.707 .707 -.707 .707 -632.072 1230.905)" gradientUnits="userSpaceOnUse" x1="-121.784" x2="-15.823" xlink:href="#lg3" y1="-1236.102" y2="-1236.102"/><linearGradient id="SVGID_25_" gradientTransform="matrix(.707 .707 -.707 .707 -632.072 1230.905)" gradientUnits="userSpaceOnUse" x1="-103.123" x2="2.838" xlink:href="#lg3" y1="-1195.769" y2="-1195.769"/><linearGradient id="SVGID_26_" gradientTransform="matrix(.707 .707 -.707 .707 282.061 -239.004)" gradientUnits="userSpaceOnUse" x1="260.346" x2="396.827" xlink:href="#lg2" y1="99.682" y2="99.682"/><linearGradient id="SVGID_27_" gradientTransform="matrix(.707 .707 -.707 .707 265.013 -173.718)" gradientUnits="userSpaceOnUse" x1="201.069" x2="361.069" xlink:href="#lg2" y1="41.462" y2="41.462"/><linearGradient id="SVGID_28_" gradientTransform="matrix(.707 .707 -.707 .707 265.013 -173.718)" gradientUnits="userSpaceOnUse" x1="340.291" x2="347.426" y1="430.638" y2="430.638"><stop offset="0" stop-color="#f3eae6"/><stop offset="1" stop-color="#cdbfba"/></linearGradient><g><path d="m172.719 491.807-.038-15 105.044-.201c24.604-.086 47.877-8.833 66.306-24.779l-10.947-10.943c-5.81-5.808-9.01-13.531-9.011-21.747 0-8.215 3.199-15.939 9.008-21.748s13.532-9.008 21.746-9.008h.002c8.215.001 15.938 3.201 21.747 9.011 11.987 11.99 11.986 31.499-.003 43.488l-11.137 11.137 11.688 11.688c7.917 7.916 18.864 12.449 30.058 12.449h.146c23.353-.083 42.352-19.149 42.352-42.502v-92.035h15v92.035c0 31.595-25.704 57.39-57.298 57.502-.065 0-.132 0-.197 0-15.145 0-29.956-6.131-40.666-16.842l-11.854-11.854c-21.268 18.751-48.293 29.048-76.893 29.148zm182.108-88.426c-4.208 0-8.164 1.639-11.139 4.614-2.976 2.976-4.614 6.932-4.614 11.141 0 4.208 1.64 8.164 4.616 11.139l11.139 11.136 11.138-11.137c6.141-6.142 6.142-16.134.001-22.276-2.975-2.977-6.931-4.616-11.139-4.616-.001-.001-.002-.001-.002-.001z" fill="url(#SVGID_1_)"/><path d="m343.689 430.275c-2.376-2.376-3.883-5.381-4.401-8.637l-11.848 11.502c1.447 2.822 3.336 5.435 5.644 7.743l10.947 10.943 10.797-10.416z" fill="url(#SVGID_2_)"/><path d="m377.124 463.705-11.688-11.688-10.76 10.454 11.842 11.842c1.964 1.964 4.069 3.771 6.286 5.418l10.948-10.636c-2.376-1.564-4.602-3.365-6.628-5.39z" fill="url(#SVGID_3_)"/><path d="m318.945 313.05c-6.606-6.606-16.771-8.077-24.979-3.615l-3.282 1.784c-9.161 4.98-20.507 3.338-27.88-4.035-4.724-4.724-7.218-11.234-6.859-17.905l.418-7.762c.912-16.943-10.692-32.011-27.306-35.458-5.545-1.15-10.632-3.897-14.636-7.901-11.342-11.342-11.342-29.73 0-41.072l11.017-11.017c9.244-9.244 9.244-24.23 0-33.474-9.244-9.244-24.23-9.244-33.474 0-11.063 11.063-19.99 24.072-26.333 38.374l-17.314 39.042c-14.348 32.353-41.528 57.265-75.006 68.746l-29.034 9.957c-8.445 2.896-16.116 7.683-22.429 13.996-29.129 29.129-29.129 76.356 0 105.485l59.958 59.958c29.129 29.129 76.356 29.129 105.485 0 6.313-6.313 11.1-13.984 13.996-22.429l9.957-29.032c11.482-33.479 36.395-60.66 68.75-75.008l32.59-14.452c13.532-6 16.829-23.714 6.361-34.182z" fill="url(#SVGID_4_)"/><path d="m256.16 285.236c-6.321 1.386-12.989.092-18.371-3.62l-6.541 6.541c-3.302 3.302-8.648 3.302-11.95 0l-33.192-33.192c-3.302-3.302-3.309-8.655-.007-11.957l20.273-20.273c.997 5.65 3.684 11.066 8.047 15.429 2.001 2.001 4.271 3.691 6.739 5.013 2.044 1.11 4.222 1.959 6.491 2.546.467.127.933.24 1.407.332 11.193 2.326 20.124 9.928 24.466 19.827 2.1 4.787 3.14 10.112 2.835 15.634z" fill="url(#SVGID_5_)"/><path d="m187.295 488.154c-29.133 29.133-76.36 29.126-105.486 0l-28.298-28.298c29.126 29.126 76.353 29.133 105.486 0 3.154-3.154 5.926-6.647 8.273-10.409 2.348-3.762 4.264-7.799 5.713-12.021l9.956-29.034c11.483-33.474 36.402-60.656 68.752-75.003l32.598-14.453c4.752-2.107 8.238-5.664 10.31-9.843 8.104-4.045 17.911-2.482 24.346 3.953 10.472 10.472 7.17 28.185-6.357 34.189l-32.598 14.453c-32.35 14.347-57.268 41.528-68.752 75.003l-9.956 29.034c-1.45 4.221-3.366 8.259-5.713 12.021-2.348 3.761-5.12 7.255-8.274 10.408z" fill="url(#SVGID_6_)"/><circle cx="120.557" cy="460.825" fill="url(#SVGID_7_)" r="17.5"/><circle cx="170.762" cy="452.339" fill="url(#SVGID_8_)" r="17.5"/><g><path d="m236.98 305.844-33.193-33.193c-3.301-3.301-3.301-8.653 0-11.955l179.498-179.496c3.301-3.301 8.653-3.301 11.955 0l33.193 33.193c3.301 3.301 3.301 8.653 0 11.955l-179.498 179.496c-3.301 3.301-8.654 3.301-11.955 0z" fill="url(#SVGID_9_)"/><path d="m428.434 126.345-179.498 179.498c-3.305 3.305-8.658 3.305-11.956.007l-18.296-18.296c3.305 3.305 8.658 3.305 11.963 0l157.275-157.275-20.629-20.629c-2.216-2.216-3.861-4.782-4.936-7.525l20.928-20.928c3.298-3.298 8.651-3.298 11.949 0l33.199 33.199c3.299 3.299 3.298 8.651.001 11.949z" fill="url(#SVGID_10_)"/></g><g><g><path d="m430.802 123.976-63.982-63.983 10.607-10.606 63.983 63.982z" fill="url(#SVGID_11_)"/></g><g><path d="m452.575 102.204-55.503-55.502 10.607-10.607 55.503 55.502z" fill="url(#SVGID_12_)"/></g><g><path d="m495.495 57.532-38.478-38.478 10.608-10.607 38.477 38.478z" fill="url(#SVGID_13_)"/></g><g><path d="m474.346 80.432-46.99-46.99 10.608-10.606 46.99 46.989z" fill="url(#SVGID_14_)"/></g></g><g><path d="m475.165 8.202c-2.784-6.444-9.397-9.786-14.772-7.465l-6.228 2.69c-5.374 2.322-7.474 9.428-4.69 15.872 2.784 6.444 9.397 9.786 14.771 7.464l6.228-2.69c5.375-2.321 7.475-9.427 4.691-15.871z" fill="url(#SVGID_15_)"/><path d="m445.193 21.15c-2.784-6.444-9.397-9.786-14.771-7.465l-6.228 2.69c-5.374 2.322-7.474 9.428-4.691 15.872 2.784 6.444 9.397 9.786 14.772 7.464l6.228-2.69c5.374-2.321 7.474-9.427 4.69-15.871z" fill="url(#SVGID_16_)"/><path d="m415.221 34.097c-2.784-6.444-9.397-9.786-14.771-7.465l-6.228 2.69c-5.374 2.322-7.474 9.428-4.69 15.872 2.784 6.444 9.397 9.786 14.771 7.464l6.228-2.69c5.374-2.321 7.474-9.426 4.69-15.871z" fill="url(#SVGID_17_)"/><path d="m385.362 46.996c-2.784-6.444-9.397-9.786-14.772-7.465l-6.228 2.69c-5.374 2.322-7.474 9.428-4.691 15.872 2.784 6.444 9.397 9.786 14.771 7.464l6.228-2.69c5.376-2.321 7.476-9.427 4.692-15.871z" fill="url(#SVGID_18_)"/></g><path d="m457.179 334.095c-4.142 0-7.5-3.358-7.5-7.5v-30.5c0-4.142 3.358-7.5 7.5-7.5s7.5 3.358 7.5 7.5v30.5c0 4.142-3.358 7.5-7.5 7.5z" fill="url(#SVGID_19_)"/><path d="m457.179 374.617c-13.309 0-23.548-11.762-21.714-24.944l3.933-28.264c1.02-7.333 7.291-12.792 14.695-12.792h6.171c7.404 0 13.674 5.458 14.695 12.792l3.933 28.264c1.835 13.182-8.404 24.944-21.713 24.944z" fill="url(#SVGID_20_)"/><path d="m478.893 349.673-3.933-28.264c-1.02-7.333-7.291-12.792-14.695-12.792h-6.171c-1.771 0-3.474.32-5.059.896 5.041 1.831 8.86 6.317 9.636 11.896l3.933 28.264c1.436 10.319-4.527 19.767-13.569 23.384 2.509 1.004 5.254 1.56 8.144 1.56 13.309 0 23.548-11.762 21.714-24.944z" fill="url(#SVGID_21_)"/><path d="m110.398 428.337-29.104-29.104c-4.093-4.093-4.093-10.729 0-14.822l21.384-21.384c4.093-4.093 10.729-4.093 14.822 0l29.104 29.104c4.093 4.093 4.093 10.729 0 14.822l-21.384 21.384c-4.093 4.093-10.729 4.093-14.822 0z" fill="url(#SVGID_22_)"/><path d="m146.603 392.132-17.685-17.685c4.093 4.093 4.093 10.729 0 14.822l-21.383 21.384c-4.093 4.093-10.729 4.093-14.822 0l17.685 17.685c4.093 4.093 10.729 4.093 14.822 0l21.384-21.383c4.092-4.095 4.092-10.73-.001-14.823z" fill="url(#SVGID_23_)"/><g><path d="m202.548 335.708-41.82-41.82c-4.563-4.563-4.563-11.96 0-16.523l1.773-1.773c4.563-4.563 11.96-4.563 16.523 0l41.82 41.82c4.563 4.563 4.563 11.96 0 16.523l-1.773 1.773c-4.563 4.563-11.96 4.563-16.523 0z" fill="url(#SVGID_24_)"/><path d="m187.224 377.423-41.82-41.82c-4.563-4.563-4.563-11.96 0-16.523l1.773-1.773c4.563-4.563 11.96-4.563 16.523 0l41.82 41.82c4.563 4.563 4.563 11.96 0 16.523l-1.773 1.773c-4.563 4.563-11.96 4.563-16.523 0z" fill="url(#SVGID_25_)"/></g><path d="m412.994 117.384-32.101-32.101c-5.069-5.069-3.454-13.648 3.11-16.528l84.887-37.242c11.401-5.002 24.702-2.499 33.506 6.304 10.14 10.14 10.14 26.581 0 36.721l-42.845 42.845c-12.857 12.857-33.701 12.857-46.557.001z" fill="url(#SVGID_26_)"/><path d="m502.395 37.817c-3.252-3.252-7.119-5.637-11.276-7.109 2.798 8.929.666 19.07-6.409 26.145l-42.845 42.845c-12.856 12.856-33.7 12.856-46.556 0l17.685 17.685c12.856 12.856 33.7 12.856 46.556 0l42.845-42.845c10.141-10.14 10.141-26.58 0-36.721z" fill="url(#SVGID_27_)"/><path d="m196.321 380.805c2.706-.193 5.357-1.314 7.426-3.382l1.773-1.773c2.971-2.971 3.995-7.143 3.096-10.953-4.513 5.026-8.625 10.411-12.295 16.108z" fill="url(#SVGID_28_)"/></g></svg>