<svg id="Capa_1" enable-background="new 0 0 509.998 509.998" height="512" viewBox="0 0 509.998 509.998" width="512" xmlns="http://www.w3.org/2000/svg" xmlns:xlink="http://www.w3.org/1999/xlink"><linearGradient id="lg1"><stop offset="0" stop-color="#fbc56d"/><stop offset=".593" stop-color="#dc8758"/><stop offset="1" stop-color="#9e5528"/></linearGradient><linearGradient id="SVGID_1_" gradientUnits="userSpaceOnUse" x1="83.823" x2="335.49" xlink:href="#lg1" y1="256.175" y2="507.842"/><linearGradient id="SVGID_2_" gradientUnits="userSpaceOnUse" x1="190.874" x2="275.224" xlink:href="#lg1" y1="172.457" y2="256.807"/><linearGradient id="SVGID_3_" gradientUnits="userSpaceOnUse" x1="77.728" x2="260.161" xlink:href="#lg1" y1="280.936" y2="463.369"/><linearGradient id="lg2"><stop offset="0" stop-color="#537983"/><stop offset=".593" stop-color="#554e56"/><stop offset="1" stop-color="#433f43"/></linearGradient><linearGradient id="SVGID_4_" gradientTransform="matrix(.707 .707 -.707 .707 222.032 -119.279)" gradientUnits="userSpaceOnUse" x1="226.615" x2="345.919" xlink:href="#lg2" y1="156.072" y2="156.072"/><linearGradient id="SVGID_5_" gradientTransform="matrix(.707 .707 -.707 .707 254.029 -106.026)" gradientUnits="userSpaceOnUse" x1="165.618" x2="284.923" xlink:href="#lg2" y1="169.329" y2="169.329"/><linearGradient id="SVGID_6_" gradientTransform="matrix(.707 .707 -.707 .707 254.421 -105.079)" gradientUnits="userSpaceOnUse" x1="195.588" x2="316.352" xlink:href="#lg2" y1="16.117" y2="16.117"/><linearGradient id="SVGID_7_" gradientTransform="matrix(.707 .707 -.707 .707 254.421 -105.079)" gradientUnits="userSpaceOnUse" x1="195.588" x2="316.352" xlink:href="#lg2" y1="-21.74" y2="-21.74"/><linearGradient id="SVGID_8_" gradientTransform="matrix(.707 .707 -.707 .707 254.421 -105.079)" gradientUnits="userSpaceOnUse" x1="195.588" x2="316.352" xlink:href="#lg2" y1="53.973" y2="53.973"/><linearGradient id="SVGID_9_" gradientTransform="matrix(.707 .707 -.707 .707 222.032 -119.279)" gradientUnits="userSpaceOnUse" x1="201.007" x2="370.109" xlink:href="#lg1" y1="1.533" y2="1.533"/><linearGradient id="SVGID_10_" gradientTransform="matrix(.707 .707 -.707 .707 254.029 -106.026)" gradientUnits="userSpaceOnUse" x1="149.969" x2="315.996" xlink:href="#lg1" y1="14.787" y2="14.787"/><linearGradient id="lg3"><stop offset="0" stop-color="#fef056"/><stop offset=".5213" stop-color="#fbc56d"/><stop offset="1" stop-color="#c86d36"/></linearGradient><linearGradient id="SVGID_11_" gradientUnits="userSpaceOnUse" x1="394.871" x2="417.817" xlink:href="#lg3" y1="4.627" y2="27.572"/><linearGradient id="SVGID_12_" gradientUnits="userSpaceOnUse" x1="368.103" x2="391.048" xlink:href="#lg3" y1="31.395" y2="54.341"/><linearGradient id="SVGID_13_" gradientUnits="userSpaceOnUse" x1="341.334" x2="364.28" xlink:href="#lg3" y1="58.164" y2="81.109"/><linearGradient id="SVGID_14_" gradientUnits="userSpaceOnUse" x1="486.371" x2="513.244" xlink:href="#lg3" y1="96.127" y2="122.999"/><linearGradient id="SVGID_15_" gradientUnits="userSpaceOnUse" x1="459.603" x2="486.475" xlink:href="#lg3" y1="122.895" y2="149.768"/><linearGradient id="SVGID_16_" gradientUnits="userSpaceOnUse" x1="432.834" x2="459.707" xlink:href="#lg3" y1="149.664" y2="176.536"/><linearGradient id="SVGID_17_" gradientTransform="matrix(.707 .707 -.707 .707 254.421 -105.079)" gradientUnits="userSpaceOnUse" x1="205.009" x2="306.931" xlink:href="#lg3" y1="341.134" y2="341.134"/><linearGradient id="SVGID_18_" gradientTransform="matrix(.707 .707 -.707 .707 254.421 -105.079)" gradientUnits="userSpaceOnUse" x1="216.471" x2="295.468" xlink:href="#lg2" y1="341.134" y2="341.134"/><linearGradient id="SVGID_19_" gradientTransform="matrix(.707 .707 -.707 .707 254.029 -106.026)" gradientUnits="userSpaceOnUse" x1="153.969" x2="279.973" xlink:href="#lg2" y1="341.526" y2="341.526"/><linearGradient id="SVGID_20_" gradientTransform="matrix(.707 .707 -.707 .707 254.421 -105.079)" gradientUnits="userSpaceOnUse" x1="197.422" x2="323.06" xlink:href="#lg3" y1="456.553" y2="456.553"/><linearGradient id="SVGID_21_" gradientUnits="userSpaceOnUse" x1="198.314" x2="273.437" xlink:href="#lg2" y1="317.125" y2="392.248"/><linearGradient id="SVGID_22_" gradientUnits="userSpaceOnUse" x1="186.973" x2="247.728" xlink:href="#lg2" y1="318.025" y2="378.779"/><g><path d="m313.519 309.348c7.676-1.214 14.209 5.777 12.68 13.397-3.269 16.281-10.842 31.277-22.861 43.295-10.18 10.18-22.5 17.17-35.92 21.05-19.49 5.65-33.53 22.97-34.38 43.23-.9 21.7-8.53 41.5-23.31 56.28-38.68 38.68-111.76 28.33-163.21-23.12s-61.8-124.53-23.12-163.21c14.78-14.78 34.58-22.41 56.28-23.31 20.26-.85 37.58-14.89 43.22-34.38 3.89-13.42 10.88-25.74 21.06-35.92 37.27-37.27 103.15-31.8 147.17 12.21 5.54 5.55 10.47 11.44 14.78 17.58-20.403.999-36.441 18.681-34.747 39.692 1.427 17.695 15.675 32.007 33.362 33.52 3.082.263 6.095.145 8.996-.314z" fill="url(#SVGID_1_)"/><path d="m203.288 238.71c-3.19-3.19-3.19-8.37 0-11.56l39.06-39.06c5.81 1.99 11.55 4.47 17.17 7.42s11.1 6.38 16.4 10.28c5.28 3.89 10.38 8.26 15.21 13.08 5.54 5.55 10.47 11.44 14.78 17.58-4.35.21-8.51 1.18-12.34 2.79-1.25-3.62-2.68-7.21-4.3-10.76l-42.33 42.32c-3.19 3.2-8.36 3.2-11.56 0z" fill="url(#SVGID_2_)"/><path d="m313.374 309.371c7.744-1.193 14.368 5.685 12.826 13.367-3.268 16.283-10.842 31.282-22.862 43.302-10.18 10.18-22.5 17.17-35.92 21.06-19.49 5.64-33.53 22.96-34.38 43.22-.9 21.7-8.53 41.5-23.31 56.28-38.68 38.68-111.76 28.33-163.21-23.12-4.81-4.81-9.26-9.81-13.35-14.95 49.87 39.61 113.2 44.84 148.27 9.77 14.78-14.78 22.4-34.58 23.3-56.27.85-20.27 14.9-37.59 34.38-43.23 13.42-3.89 25.74-10.88 35.92-21.06 8.79-8.79 15.2-19.17 19.29-30.48 4.16 1.64 8.69 2.54 13.42 2.54 1.912 0 3.791-.147 5.626-.429z" fill="url(#SVGID_3_)"/><path d="m253.336 288.758-32.097-32.097c-3.192-3.192-3.192-8.368 0-11.56l144.455-144.455c3.192-3.192 8.368-3.192 11.56 0l32.097 32.097c3.192 3.192 3.192 8.368 0 11.56l-144.455 144.455c-3.192 3.193-8.368 3.193-11.56 0z" fill="url(#SVGID_4_)"/><path d="m409.352 144.302-144.455 144.455c-3.196 3.196-8.372 3.196-11.561.007l-17.692-17.692c3.196 3.196 8.372 3.196 11.568 0l122.966-122.966-19.947-19.947c-2.143-2.143-3.734-4.624-4.773-7.276l20.237-20.237c3.189-3.189 8.365-3.189 11.554 0l32.103 32.103c3.189 3.188 3.189 8.364 0 11.553z" fill="url(#SVGID_5_)"/><g><path d="m461.416 135.315-85.393-85.393 10.606-10.607 85.393 85.393z" fill="url(#SVGID_6_)"/><path d="m488.184 108.546-85.393-85.393 10.607-10.606 85.393 85.393z" fill="url(#SVGID_7_)"/><path d="m434.647 162.083-85.393-85.393 10.607-10.606 85.393 85.393z" fill="url(#SVGID_8_)"/></g><path d="m399.525 142.077-31.604-31.604c-8.36-8.36-8.36-21.915 0-30.275l51.42-51.42c8.36-8.36 21.915-8.36 30.275 0l31.604 31.604c8.36 8.36 8.36 21.915 0 30.275l-51.42 51.42c-8.36 8.36-21.915 8.36-30.275 0z" fill="url(#SVGID_9_)"/><path d="m481.22 60.382-17.685-17.685c8.36 8.36 8.36 21.915 0 30.275l-51.42 51.42c-8.36 8.36-21.915 8.36-30.275 0l17.685 17.685c8.36 8.36 21.915 8.36 30.275 0l51.42-51.42c8.36-8.36 8.36-21.915 0-30.275z" fill="url(#SVGID_10_)"/><g><path d="m416.788 3.6c-4.8-4.8-12.582-4.8-17.382 0l-5.562 5.562c-4.8 4.8-4.8 12.582 0 17.382 4.8 4.8 12.582 4.8 17.382 0l5.562-5.562c4.8-4.8 4.8-12.582 0-17.382z" fill="url(#SVGID_11_)"/><path d="m390.02 30.368c-4.8-4.8-12.582-4.8-17.382 0l-5.562 5.562c-4.8 4.8-4.8 12.582 0 17.382 4.8 4.8 12.582 4.8 17.382 0l5.562-5.562c4.8-4.8 4.8-12.582 0-17.382z" fill="url(#SVGID_12_)"/><path d="m363.251 57.137c-4.8-4.8-12.582-4.8-17.382 0l-5.562 5.562c-4.8 4.8-4.8 12.582 0 17.382 4.8 4.8 12.582 4.8 17.382 0l5.562-5.562c4.8-4.8 4.8-12.582 0-17.382z" fill="url(#SVGID_13_)"/></g><g><path d="m506.398 93.209c-4.8-4.8-12.582-4.8-17.382 0l-5.562 5.562c-4.8 4.8-4.8 12.582 0 17.382s12.582 4.8 17.382 0l5.562-5.562c4.8-4.8 4.8-12.582 0-17.382z" fill="url(#SVGID_14_)"/><path d="m462.248 119.978-5.562 5.562c-4.8 4.8-4.8 12.582 0 17.382s12.582 4.8 17.382 0l5.562-5.562c4.8-4.8 4.8-12.582 0-17.382-4.801-4.8-12.583-4.8-17.382 0z" fill="url(#SVGID_15_)"/><path d="m435.479 146.747-5.562 5.562c-4.8 4.8-4.8 12.582 0 17.382s12.582 4.8 17.382 0l5.562-5.562c4.8-4.8 4.8-12.582 0-17.382s-12.582-4.8-17.382 0z" fill="url(#SVGID_16_)"/></g><circle cx="194.201" cy="317.137" fill="url(#SVGID_17_)" r="50.961"/><circle cx="194.201" cy="317.137" fill="url(#SVGID_18_)" r="39.499"/><path d="m222.13 289.207c-3.092-3.092-6.573-5.553-10.28-7.405 7.389 14.79 4.928 33.246-7.405 45.579s-30.79 14.794-45.579 7.405c1.852 3.708 4.313 7.188 7.405 10.28 15.425 15.425 40.434 15.425 55.859 0 15.426-15.425 15.425-40.434 0-55.859z" fill="url(#SVGID_19_)"/><path d="m132.441 436.296-57.4-57.4c-3.252-3.252-3.252-8.525 0-11.777l5.915-5.915c3.252-3.252 8.525-3.252 11.777 0l57.4 57.4c3.252 3.252 3.252 8.525 0 11.777l-5.915 5.915c-3.252 3.252-8.525 3.252-11.777 0z" fill="url(#SVGID_20_)"/><path d="m270.191 340.307c0 31.393-25.451 56.855-56.855 56.855-.263 0-.525-.002-.786-.005-17.864-.242-21.493-25.546-4.396-30.732 7.837-2.377 15.218-6.664 21.412-12.858 14.323-14.323 18.447-34.973 12.372-52.936-1.386-4.099 3.504-7.461 6.882-4.758 13.025 10.421 21.371 26.452 21.371 44.434z" fill="url(#SVGID_21_)"/><path d="m270.142 342.24c-9.14 7.766-19.687 13.274-31.024 16.56-17.348 5.023-30.38 19.312-33.628 36.695 2.019 1.015 4.375 1.625 7.059 1.662.262.004.524.005.786.005 30.756 0 55.786-24.425 56.807-54.922z" fill="url(#SVGID_22_)"/></g></svg>